Coordinates
nRows=4
nColumns=38

# SIMM Motion File Header:
name Coordinates
datacolumns 38
datarows 4
otherdata 1
range 2.33300000000000020000 2.33599999999999990000

Units are S.I. units (second, meters, Newtons, ...)
Angles are in degrees.

endheader
time	pelvis_tilt	pelvis_list	pelvis_rotation	pelvis_tx	pelvis_ty	pelvis_tz	hip_flexion_r	hip_adduction_r	hip_rotation_r	knee_angle_r	ankle_angle_r	subtalar_angle_r	mtp_angle_r	hip_flexion_l	hip_adduction_l	hip_rotation_l	knee_angle_l	ankle_angle_l	subtalar_angle_l	mtp_angle_l	lumbar_extension	lumbar_bending	lumbar_rotation	arm_flex_r	arm_add_r	arm_rot_r	elbow_flex_r	pro_sup_r	wrist_flex_r	wrist_dev_r	arm_flex_l	arm_add_l	arm_rot_l	elbow_flex_l	pro_sup_l	wrist_flex_l	wrist_dev_l
      2.33300000000000020000	    -13.82281551430259200000	      2.66082472930187700000	     -1.12135875891670600000	      1.02748766398424740000	      0.97698327124282103000	     -0.35270415670314259000	     37.71457255398695500000	     -0.45744587638798545000	      4.65644646226896430000	    -78.28785863140225800000	      6.79047704452802940000	     -0.00000000000006734156	      0.00000000000011322647	     21.55259191379639100000	      8.12610901575694200000	     -0.12647440018406716000	    -36.27203004318234000000	     19.97586410806829300000	     -0.00000000000002625061	      0.00000000000016874895	      0.52538245147880380000	     -3.55549888962024460000	     -3.03781385237030800000	    -31.20718335991215000000	    -18.91729478222613300000	     -8.92388907146021460000	     84.61344885933165500000	    128.62250529293192000000	     -0.00000000000000573591	      0.00000000000003098087	    -19.89353164019399500000	    -12.90410872629657200000	     -9.02183254076236450000	    112.71815310991265000000	    102.54940732554016000000	      0.00000000000002221814	      0.00000000000001212467
      2.33400000000000010000	    -13.83256127480294700000	      2.61823991232387330000	     -1.15896834360584600000	      1.02757401980284540000	      0.97752206399052255000	     -0.35266601991164437000	     37.81254718198958600000	     -0.41383889946296309000	      4.62071481769919860000	    -78.06367686551566000000	      6.84176363902875990000	     -0.00000000000006741880	      0.00000000000011339494	     21.33225251979588000000	      8.08440967506723320000	     -0.10023073528103113000	    -36.07027403935165200000	     19.79873712288073400000	     -0.00000000000002673111	      0.00000000000017037785	      0.54870545399283710000	     -3.48360176561937470000	     -3.08586149159316480000	    -31.36332935143256500000	    -18.97261199693166500000	     -8.98059055794523080000	     84.73578677662277400000	    128.44639909943925000000	     -0.00000000000000573197	      0.00000000000003103679	    -19.91584901533740400000	    -12.90480052939162200000	     -9.00417795129748380000	    112.90676717581131000000	    102.49802363045018000000	      0.00000000000002225917	      0.00000000000001202031
      2.33500000000000000000	    -13.84201251197429800000	      2.57511021437822630000	     -1.19706953497894800000	      1.02766337530334310000	      0.97806692624978642000	     -0.35262699546241216000	     37.90793553875469300000	     -0.36999396360211678000	      4.58391248106838670000	    -77.83488842484011600000	      6.89289757988796570000	     -0.00000000000006749516	      0.00000000000011356244	     21.11121153072489800000	      8.04181404423662730000	     -0.07455208936550325500	    -35.86719100866037000000	     19.61713210646640700000	     -0.00000000000002721393	      0.00000000000017199522	      0.57191812094675987000	     -3.41086908473061930000	     -3.13238886668188780000	    -31.51988518982442500000	    -19.02682022626432700000	     -9.03864169995099860000	     84.85812070147882500000	    128.26606627636158000000	     -0.00000000000000572810	      0.00000000000003109191	    -19.93849893517391400000	    -12.90523715787861500000	     -8.98611190708638570000	    113.09509432942163000000	    102.44852906666054000000	      0.00000000000002229998	      0.00000000000001191969
      2.33599999999999990000	    -13.85114644231354200000	      2.53144236301013550000	     -1.23565069963505800000	      1.02775573468317520000	      0.97861773807761465000	     -0.35258706612764829000	     38.00070046050920100000	     -0.32590663156728689000	      4.54606198413214990000	    -77.60151472707254100000	      6.94386703655934310000	     -0.00000000000006757001	      0.00000000000011372977	     20.88947767181022300000	      7.99831965665553920000	     -0.04947666790494714000	    -35.66284258631267800000	     19.43114173974579400000	     -0.00000000000002772689	      0.00000000000017363440	      0.59498918712528137000	     -3.33731779730972370000	     -3.17740016077135530000	    -31.67682558312923600000	    -19.07989884221903100000	     -9.09803299870955580000	     84.98037709292236700000	    128.08173796007509000000	     -0.00000000000000572364	      0.00000000000003114454	    -19.96147717301133200000	    -12.90542567397455900000	     -8.96763028932821980000	    113.28309836046145000000	    102.40093662559548000000	      0.00000000000002234097	      0.00000000000001182892
